# xmcd
#
# Track frame offsets: 
#        150
#        24835
#        48124
#        76266
#        96580
#        103742
#        114523
#        130273
#        156920
#        205935
#        220402
#
# Disc length: 3156 seconds
#
# Revision: 4
# Processed by: cddbd v1.5.2PL0 Copyright (c) Steve Scherf et al.
# Submitted via: ExactAudioCopyFreeDBPlugin 1.0
#
DISCID=910c520b
DTITLE=Tommy Emmanuel - Center Stage Disc 2
DYEAR=2008
DGENRE=Folk
TTITLE0=Workin' Man Blues
TTITLE1=Georgia On My Mind
TTITLE2=House Of The Risin' Sun
TTITLE3=Amazing Grace
TTITLE4=Story Of Little Boy
TTITLE5=Tall Fiddler
TTITLE6=Cowboy's Dream
TTITLE7=Morning Aire
TTITLE8=Initiation
TTITLE9=Lenny Bro'
TTITLE10=Questions
EXTD=YEAR: 2008
EXTT0=
EXTT1=
EXTT2=
EXTT3=
EXTT4=
EXTT5=
EXTT6=
EXTT7=
EXTT8=
EXTT9=
EXTT10=
PLAYORDER=
